Patient4_TMGait_0pt6_02_left_15_EMG.mot
version=1
nRows=20
nColumns=33
inDegrees=no
endheader
time	1LAddLong	2LGlutMax	3LGlutMed	4LIliopsoas	5LSemiMemb	6LBicFemLong	7LRecFem	8LVastMed	9LVastLat	10LGasMed	11LTibAnt	12lTibPost	13LPeroneusLong	14LSol	15LExtDigLong	16LFlexDigLong	17RAddLong	18RGlutMax	19RGlutMed	20RIliopsoas	21RSemiMemb	22RBicFemLong	23RRecFem	24RVastMed	25RVastLat	26RGasMed	27RTibAnt	28RTibPost	29RPeroneusLong	30RSol	31RExtDigLong	32RFlexDigLong
18.842	0.066986	0.5896	0.080414	0.010223	0.059814	-0.079346	0.60821	0.037689	0.075836	-0.89935	0.03418	0.024414	0.068665	-0.7991	0.032806	0.016022	-0.010376	0.24857	0.092316	-0.095825	0.053864	-0.010681	0.62454	-0.083771	0.001526	0.007477	0.042114	0.16144	0.21896	0.98053	0	-0.006561
18.843	0.059967	0.5249	-0.017548	0.00824	0.085144	-0.062256	0.45258	0.007629	-0.002289	-1.1592	0.035858	0.039215	0.054474	-0.60089	-0.016174	-0.00412	0.003052	0.14282	0.039368	-0.05249	0.037079	-0.026703	0.62393	-0.11459	-0.011444	0.054474	0.036163	0.45929	-0.82962	0.4332	0.00061	-0.00412
18.844	0.052795	0.50949	0.041046	-0.031128	0.075684	0.24551	0.23499	-0.021362	-0.023804	-0.92453	0.018005	0.058441	-0.022125	-0.40009	-0.040436	-0.00946	0.027618	0.13504	0.043793	-0.041199	0.029449	-0.028229	0.61722	-0.13626	-0.009613	0.086212	0.008545	0.28244	-0.85678	-0.28275	-0.001221	0
18.845	0.055695	0.51056	0.066223	-0.021057	0.014801	0.43778	0.1886	-0.028839	-0.063019	-0.79178	0.008698	0.068665	-0.04837	-0.19562	-0.046387	-0.013733	0.053253	0.092316	0.052643	-0.063019	0.014648	-0.021362	0.62897	-0.16068	-0.010529	0.06424	0.019073	0.10849	-0.98663	-0.54489	-0.005951	-0.000305
18.846	0.050964	0.55359	-0.092621	-0.005341	-0.022583	0.57404	0.17425	-0.03006	-0.20905	-0.54596	-0.018158	0.078278	-0.05661	-0.069733	-0.054779	-0.015869	0.022278	0.009003	0.041046	-0.070801	0.00946	-0.021973	0.6868	-0.11749	-0.022278	-0.021973	0.09079	-0.48996	-1.0841	-1.0341	-0.002136	-0.014648
18.847	0.061188	0.5365	-0.11139	0.026245	-0.017242	0.38284	0.098419	-0.014343	-0.25207	-0.45837	-0.019226	0.052338	-0.054321	-0.10117	-0.052338	-0.010681	-0.012512	-0.007019	-0.045166	-0.012207	0.011749	-0.006561	0.68893	-0.1384	-0.015869	-0.007172	0.074158	-0.65613	0.28732	-0.42084	0	-0.008087
18.848	0.065613	0.51025	-0.077362	0.026703	0.012512	0.24765	-0.013275	0.018463	-0.12695	-0.30624	-0.025482	0.053558	0.15182	-0.07309	-0.063782	0.001373	-0.000305	-0.073547	-0.068359	-0.016937	0.021973	-0.003815	0.62134	-0.16007	-0.028992	-0.015869	0.029602	0.43778	1.0669	-0.43457	0.000763	-0.00473
18.849	0.052643	0.51102	-0.024719	0.01358	-0.002594	0.22919	-0.080414	0.026245	-0.035858	-0.17929	0.008392	0.066223	0.31235	0.17151	-0.075378	0.003052	-0.01236	-0.12741	-0.005035	0.083923	0.013428	-0.029755	0.58746	-0.12756	-0.01236	-0.07843	-0.000458	-0.42633	0.07309	-0.84076	0.006256	-0.004578
18.85	0.054474	0.51544	-0.11108	0.00946	-0.049133	0.23163	-0.14908	0.00946	-0.15274	0.018921	-0.001221	0.06073	0.19852	0.5072	-0.02655	-0.007019	-0.020599	-0.17425	-0.023651	0.027924	0.011292	-0.018616	0.57968	-0.11322	0.006409	-0.10254	-0.06546	-0.10284	-0.31693	-0.8609	-0.001068	-0.018463
18.851	0.054016	0.59647	-0.11581	0.001678	-0.042267	0.36453	-0.21362	-0.00946	-0.1886	0.06485	-0.014038	0.052032	-0.33188	0.59952	-0.010529	-0.003052	-0.006561	-0.22125	0.037689	0.001068	-0.001678	-0.014191	0.56549	-0.12009	-0.004578	-0.1059	-0.065308	0.27145	0.13245	-0.40924	-0.000153	-0.018311
18.852	0.05722	0.70709	0.055695	-0.003967	-0.064545	0.4155	-0.33081	-0.028687	-0.13534	0.019226	0.065308	0.054321	-0.079346	0.50201	-0.006561	0.010376	-0.011749	-0.29694	-0.082245	-0.016479	0	0.001373	0.48859	-0.10803	-0.005951	-0.046082	-0.018158	0.66452	-0.13611	-0.31708	-0.001678	-0.02121
18.853	0.057678	0.74936	0.075226	-0.009918	-0.086975	0.088806	-0.38788	-0.041046	-0.10529	-0.019989	0.11368	0.055237	-0.023804	0.47012	-0.027161	0.01297	-0.027771	-0.34149	-0.17166	-0.10651	0.007019	-0.005341	0.42221	-0.035095	0.00473	-0.020142	0.016479	0.31662	-0.69412	-0.16663	0.004883	-0.007172
18.854	0.048676	0.82748	-0.000916	-0.016785	-0.0737	-0.41901	-0.3952	-0.030823	-0.1004	0.007477	0.10529	0.052643	0.029449	0.42252	-0.041809	0.013123	-0.029449	-0.4274	-0.25955	-0.12573	0.0177	0.009003	0.46845	-0.034943	0.019836	0.000916	-0.004425	0.30655	0.072327	1.1292	-0.001526	0.001831
18.855	0.041809	0.94254	0.052338	0.019531	-0.067902	-0.40924	-0.41443	-0.016785	-0.081787	0.041809	0.034637	0.042877	-0.52994	0.36667	-0.057831	0.011749	-0.028076	-0.44418	-0.19501	-0.020447	0.019989	0.042725	0.46051	-0.037537	0.008087	0.008392	-0.036926	0.13626	0.90118	1.344	-0.000458	0.004883
18.856	0.045471	1.0309	0.13473	0.039368	-0.002594	-0.3865	-0.47806	0.002289	-0.073242	0.066528	-0.05249	0.037231	-0.57053	0.18112	-0.021973	0.020294	-0.029907	-0.48508	-0.25726	0.14587	0.041809	0.05249	0.46432	-0.048828	0.016479	-0.002441	-0.025024	-0.015564	0.59708	0.69626	0.000763	-0.001678
18.857	0.039825	1.1417	0.11887	0.053864	0.10239	-0.36072	-0.50034	0.004272	-0.076447	0.046692	-0.099487	0.02182	-0.28244	0.045471	0.1326	0.014191	-0.018768	-0.53604	-0.16556	0.25207	0.051575	0.048828	0.49179	-0.046844	0.018005	-0.004425	0.009308	-0.088501	0.19379	0.27908	0.004272	-0.00885
18.858	0.023956	1.2418	0.022736	0.006104	0.027161	-0.2739	-0.47897	0.009766	-0.047607	-0.098267	-0.085144	0.015564	0.56717	0.16037	-0.14618	0.018616	-0.015869	-0.57419	-0.079041	0.33463	0.058289	0.051422	0.44861	-0.036011	0.00885	-0.003357	0.028687	-0.07431	0.034943	0.068665	-0.002136	-0.005493
18.859	0.037231	1.2572	-0.005798	-0.005798	-0.041656	-0.28	-0.47318	0	0.031586	-0.10956	-0.022125	0.006409	0.44784	0.14999	-0.10376	0.024414	-0.015564	-0.63751	-0.2092	0.29724	0.06424	0.028687	0.48737	-0.030365	-0.020599	-0.007019	0.048523	-0.079803	-0.070038	0.54031	0.002289	-0.017395
18.86	0.029755	1.4024	0.026398	-0.00824	-0.040741	-0.34927	-0.45013	-0.003357	0.11246	-0.040131	0.042877	-0.014801	-0.22201	0.17868	0.093079	0.011597	-0.016327	-0.72403	-0.39658	0.17151	0.054626	0.033569	0.51727	-0.067291	-0.009308	-0.009308	0.029755	-0.088654	0.058594	0.27985	-0.002441	-0.011139
18.861	0.03891	1.4131	0.048676	0.01358	0.019379	-0.48111	-0.49103	-0.00946	0.098572	0.031738	0.13397	-0.013885	-0.1506	0.0177	0.081635	0.009766	0.020294	-0.79483	-0.54428	0.068665	0.052643	0.033264	0.56259	-0.11734	-0.017548	-0.006256	-0.011597	-0.085754	0.57037	0.027771	-0.003967	-0.005798
